<svg width="91" height="94" viewBox="0 0 91 94" fill="none" xmlns="http://www.w3.org/2000/svg">
<path d="M2.03613 81.8906L4.36035 87.6914L6.68457 81.8906H7.90039V89H6.96289V86.2314L7.05078 83.2432L4.7168 89H3.99902L1.66992 83.2578L1.7627 86.2314V89H0.825195V81.8906H2.03613ZM12.6758 89C12.6237 88.8958 12.5814 88.7103 12.5488 88.4434C12.1289 88.8796 11.6276 89.0977 11.0449 89.0977C10.5241 89.0977 10.096 88.9512 9.76074 88.6582C9.42871 88.362 9.2627 87.9876 9.2627 87.5352C9.2627 86.985 9.47103 86.5586 9.8877 86.2559C10.3076 85.9499 10.8968 85.7969 11.6553 85.7969H12.5342V85.3818C12.5342 85.0661 12.4398 84.8154 12.251 84.6299C12.0622 84.4411 11.7839 84.3467 11.416 84.3467C11.0938 84.3467 10.8236 84.4281 10.6055 84.5908C10.3874 84.7536 10.2783 84.9505 10.2783 85.1816H9.37012C9.37012 84.918 9.46289 84.6641 9.64844 84.4199C9.83724 84.1725 10.0911 83.9772 10.4102 83.834C10.7324 83.6908 11.0856 83.6191 11.4697 83.6191C12.0785 83.6191 12.5553 83.7721 12.9004 84.0781C13.2454 84.3809 13.4245 84.7992 13.4375 85.333V87.7646C13.4375 88.2497 13.4993 88.6354 13.623 88.9219V89H12.6758ZM11.1768 88.3115C11.46 88.3115 11.7285 88.2383 11.9824 88.0918C12.2363 87.9453 12.4202 87.7549 12.5342 87.5205V86.4365H11.8262C10.7194 86.4365 10.166 86.7604 10.166 87.4082C10.166 87.6914 10.2604 87.9128 10.4492 88.0723C10.638 88.2318 10.8805 88.3115 11.1768 88.3115ZM15.708 83.7168L15.7373 84.3809C16.141 83.873 16.6683 83.6191 17.3193 83.6191C18.4359 83.6191 18.999 84.249 19.0088 85.5088V89H18.1055V85.5039C18.1022 85.123 18.0143 84.8415 17.8418 84.6592C17.6725 84.4769 17.4072 84.3857 17.0459 84.3857C16.7529 84.3857 16.4958 84.4639 16.2744 84.6201C16.0531 84.7764 15.8805 84.9814 15.7568 85.2354V89H14.8535V83.7168H15.708ZM22.5635 89.0977C21.8473 89.0977 21.2646 88.8633 20.8154 88.3945C20.3662 87.9225 20.1416 87.2926 20.1416 86.5049V86.3389C20.1416 85.8148 20.2409 85.3477 20.4395 84.9375C20.6413 84.5241 20.9212 84.2018 21.2793 83.9707C21.6406 83.7363 22.0312 83.6191 22.4512 83.6191C23.138 83.6191 23.6719 83.8454 24.0527 84.2979C24.4336 84.7503 24.624 85.3981 24.624 86.2412V86.6172H21.0449C21.0579 87.138 21.2093 87.5596 21.499 87.8818C21.792 88.2008 22.1631 88.3604 22.6123 88.3604C22.9313 88.3604 23.2015 88.2952 23.4229 88.165C23.6442 88.0348 23.8379 87.8623 24.0039 87.6475L24.5557 88.0771C24.113 88.7575 23.4489 89.0977 22.5635 89.0977ZM22.4512 84.3613C22.0866 84.3613 21.7806 84.4948 21.5332 84.7617C21.2858 85.0254 21.1328 85.3965 21.0742 85.875H23.7207V85.8066C23.6947 85.3477 23.571 84.9928 23.3496 84.7422C23.1283 84.4883 22.8288 84.3613 22.4512 84.3613ZM25.459 86.3145C25.459 85.4909 25.6494 84.8366 26.0303 84.3516C26.4111 83.8633 26.9157 83.6191 27.5439 83.6191C28.1885 83.6191 28.6914 83.847 29.0527 84.3027L29.0967 83.7168H29.9219V88.873C29.9219 89.5566 29.7184 90.0954 29.3115 90.4893C28.9079 90.8831 28.3643 91.0801 27.6807 91.0801C27.2998 91.0801 26.9271 90.9987 26.5625 90.8359C26.1979 90.6732 25.9196 90.4502 25.7275 90.167L26.1963 89.625C26.5837 90.1035 27.0573 90.3428 27.6172 90.3428C28.0566 90.3428 28.3984 90.2191 28.6426 89.9717C28.89 89.7243 29.0137 89.376 29.0137 88.9268V88.4727C28.6523 88.8893 28.1592 89.0977 27.5342 89.0977C26.9157 89.0977 26.4144 88.8486 26.0303 88.3506C25.6494 87.8525 25.459 87.1738 25.459 86.3145ZM26.3672 86.417C26.3672 87.0127 26.4893 87.4814 26.7334 87.8232C26.9775 88.1618 27.3193 88.3311 27.7588 88.3311C28.3285 88.3311 28.7467 88.0723 29.0137 87.5547V85.1426C28.737 84.638 28.3219 84.3857 27.7686 84.3857C27.3291 84.3857 26.9857 84.5566 26.7383 84.8984C26.4909 85.2402 26.3672 85.7464 26.3672 86.417ZM32.1387 83.7168L32.1631 84.3027C32.5505 83.847 33.0729 83.6191 33.7305 83.6191C34.4694 83.6191 34.9723 83.9023 35.2393 84.4688C35.415 84.2148 35.6429 84.0098 35.9229 83.8535C36.2061 83.6973 36.5397 83.6191 36.9238 83.6191C38.0827 83.6191 38.6719 84.2327 38.6914 85.46V89H37.7881V85.5137C37.7881 85.1361 37.7018 84.8545 37.5293 84.6689C37.3568 84.4801 37.0671 84.3857 36.6602 84.3857C36.3249 84.3857 36.0465 84.4867 35.8252 84.6885C35.6038 84.887 35.4753 85.1556 35.4395 85.4941V89H34.5312V85.5381C34.5312 84.7699 34.1553 84.3857 33.4033 84.3857C32.8109 84.3857 32.4056 84.638 32.1875 85.1426V89H31.2842V83.7168H32.1387ZM42.251 89.0977C41.5348 89.0977 40.9521 88.8633 40.5029 88.3945C40.0537 87.9225 39.8291 87.2926 39.8291 86.5049V86.3389C39.8291 85.8148 39.9284 85.3477 40.127 84.9375C40.3288 84.5241 40.6087 84.2018 40.9668 83.9707C41.3281 83.7363 41.7188 83.6191 42.1387 83.6191C42.8255 83.6191 43.3594 83.8454 43.7402 84.2979C44.1211 84.7503 44.3115 85.3981 44.3115 86.2412V86.6172H40.7324C40.7454 87.138 40.8968 87.5596 41.1865 87.8818C41.4795 88.2008 41.8506 88.3604 42.2998 88.3604C42.6188 88.3604 42.889 88.2952 43.1104 88.165C43.3317 88.0348 43.5254 87.8623 43.6914 87.6475L44.2432 88.0771C43.8005 88.7575 43.1364 89.0977 42.251 89.0977ZM42.1387 84.3613C41.7741 84.3613 41.4681 84.4948 41.2207 84.7617C40.9733 85.0254 40.8203 85.3965 40.7617 85.875H43.4082V85.8066C43.3822 85.3477 43.2585 84.9928 43.0371 84.7422C42.8158 84.4883 42.5163 84.3613 42.1387 84.3613ZM46.2158 83.7168L46.2451 84.3809C46.6488 83.873 47.1761 83.6191 47.8271 83.6191C48.9437 83.6191 49.5068 84.249 49.5166 85.5088V89H48.6133V85.5039C48.61 85.123 48.5221 84.8415 48.3496 84.6592C48.1803 84.4769 47.915 84.3857 47.5537 84.3857C47.2607 84.3857 47.0036 84.4639 46.7822 84.6201C46.5609 84.7764 46.3883 84.9814 46.2646 85.2354V89H45.3613V83.7168H46.2158ZM52.1045 82.4375V83.7168H53.0908V84.415H52.1045V87.6914C52.1045 87.903 52.1484 88.0625 52.2363 88.1699C52.3242 88.2741 52.474 88.3262 52.6855 88.3262C52.7897 88.3262 52.9329 88.3066 53.1152 88.2676V89C52.8776 89.0651 52.6465 89.0977 52.4219 89.0977C52.0182 89.0977 51.7139 88.9756 51.5088 88.7314C51.3037 88.4873 51.2012 88.1406 51.2012 87.6914V84.415H50.2393V83.7168H51.2012V82.4375H52.1045ZM58.8672 85.8311C58.0632 85.5999 57.4772 85.3167 57.1094 84.9814C56.7448 84.6429 56.5625 84.2262 56.5625 83.7314C56.5625 83.1715 56.7855 82.7093 57.2314 82.3447C57.6807 81.9769 58.2633 81.793 58.9795 81.793C59.4678 81.793 59.9023 81.8874 60.2832 82.0762C60.6673 82.265 60.9635 82.5254 61.1719 82.8574C61.3835 83.1895 61.4893 83.5524 61.4893 83.9463H60.5469C60.5469 83.5166 60.4102 83.1797 60.1367 82.9355C59.8633 82.6882 59.4775 82.5645 58.9795 82.5645C58.5173 82.5645 58.1559 82.667 57.8955 82.8721C57.6383 83.0739 57.5098 83.3555 57.5098 83.7168C57.5098 84.0065 57.6318 84.2523 57.876 84.4541C58.1234 84.6527 58.5417 84.835 59.1309 85.001C59.7233 85.167 60.1855 85.3509 60.5176 85.5527C60.8529 85.7513 61.1003 85.984 61.2598 86.251C61.4225 86.5179 61.5039 86.832 61.5039 87.1934C61.5039 87.7695 61.2793 88.2318 60.8301 88.5801C60.3809 88.9251 59.7803 89.0977 59.0283 89.0977C58.54 89.0977 58.0843 89.0049 57.6611 88.8193C57.238 88.6305 56.9108 88.3734 56.6797 88.0479C56.4518 87.7223 56.3379 87.3529 56.3379 86.9395H57.2803C57.2803 87.3691 57.4382 87.7093 57.7539 87.96C58.0729 88.2074 58.4977 88.3311 59.0283 88.3311C59.5231 88.3311 59.9023 88.2301 60.166 88.0283C60.4297 87.8265 60.5615 87.5514 60.5615 87.2031C60.5615 86.8548 60.4395 86.5863 60.1953 86.3975C59.9512 86.2054 59.5085 86.0166 58.8672 85.8311ZM64.2969 87.6768L65.5273 83.7168H66.4941L64.3701 89.8154C64.0413 90.6943 63.5189 91.1338 62.8027 91.1338L62.6318 91.1191L62.2949 91.0557V90.3232L62.5391 90.3428C62.8451 90.3428 63.0827 90.2809 63.252 90.1572C63.4245 90.0335 63.5661 89.8073 63.6768 89.4785L63.877 88.9414L61.9922 83.7168H62.9785L64.2969 87.6768ZM70.3809 87.5986C70.3809 87.3545 70.2881 87.1657 70.1025 87.0322C69.9202 86.8955 69.5996 86.7783 69.1406 86.6807C68.6849 86.583 68.3219 86.4658 68.0518 86.3291C67.7848 86.1924 67.5863 86.0296 67.4561 85.8408C67.3291 85.652 67.2656 85.4274 67.2656 85.167C67.2656 84.734 67.4479 84.3678 67.8125 84.0684C68.1803 83.7689 68.6491 83.6191 69.2188 83.6191C69.8177 83.6191 70.3027 83.7738 70.6738 84.083C71.0482 84.3923 71.2354 84.7878 71.2354 85.2695H70.3271C70.3271 85.0221 70.2214 84.8089 70.0098 84.6299C69.8014 84.4508 69.5378 84.3613 69.2188 84.3613C68.89 84.3613 68.6328 84.4329 68.4473 84.5762C68.2617 84.7194 68.1689 84.9066 68.1689 85.1377C68.1689 85.3558 68.2552 85.5202 68.4277 85.6309C68.6003 85.7415 68.9111 85.8473 69.3604 85.9482C69.8128 86.0492 70.179 86.1696 70.459 86.3096C70.7389 86.4495 70.9456 86.6188 71.0791 86.8174C71.2158 87.0127 71.2842 87.252 71.2842 87.5352C71.2842 88.0072 71.0954 88.3864 70.7178 88.6729C70.3402 88.9561 69.8503 89.0977 69.248 89.0977C68.8249 89.0977 68.4505 89.0228 68.125 88.873C67.7995 88.7233 67.5439 88.515 67.3584 88.248C67.1761 87.9779 67.085 87.6865 67.085 87.374H67.9883C68.0046 87.6768 68.125 87.9176 68.3496 88.0967C68.5775 88.2725 68.877 88.3604 69.248 88.3604C69.5898 88.3604 69.8633 88.292 70.0684 88.1553C70.2767 88.0153 70.3809 87.8298 70.3809 87.5986ZM73.6865 82.4375V83.7168H74.6729V84.415H73.6865V87.6914C73.6865 87.903 73.7305 88.0625 73.8184 88.1699C73.9062 88.2741 74.056 88.3262 74.2676 88.3262C74.3717 88.3262 74.515 88.3066 74.6973 88.2676V89C74.4596 89.0651 74.2285 89.0977 74.0039 89.0977C73.6003 89.0977 73.2959 88.9756 73.0908 88.7314C72.8857 88.4873 72.7832 88.1406 72.7832 87.6914V84.415H71.8213V83.7168H72.7832V82.4375H73.6865ZM77.9248 89.0977C77.2087 89.0977 76.626 88.8633 76.1768 88.3945C75.7275 87.9225 75.5029 87.2926 75.5029 86.5049V86.3389C75.5029 85.8148 75.6022 85.3477 75.8008 84.9375C76.0026 84.5241 76.2826 84.2018 76.6406 83.9707C77.002 83.7363 77.3926 83.6191 77.8125 83.6191C78.4993 83.6191 79.0332 83.8454 79.4141 84.2979C79.7949 84.7503 79.9854 85.3981 79.9854 86.2412V86.6172H76.4062C76.4193 87.138 76.5706 87.5596 76.8604 87.8818C77.1533 88.2008 77.5244 88.3604 77.9736 88.3604C78.2926 88.3604 78.5628 88.2952 78.7842 88.165C79.0055 88.0348 79.1992 87.8623 79.3652 87.6475L79.917 88.0771C79.4743 88.7575 78.8102 89.0977 77.9248 89.0977ZM77.8125 84.3613C77.4479 84.3613 77.1419 84.4948 76.8945 84.7617C76.6471 85.0254 76.4941 85.3965 76.4355 85.875H79.082V85.8066C79.056 85.3477 78.9323 84.9928 78.7109 84.7422C78.4896 84.4883 78.1901 84.3613 77.8125 84.3613ZM81.8848 83.7168L81.9092 84.3027C82.2965 83.847 82.819 83.6191 83.4766 83.6191C84.2155 83.6191 84.7184 83.9023 84.9854 84.4688C85.1611 84.2148 85.389 84.0098 85.6689 83.8535C85.9521 83.6973 86.2858 83.6191 86.6699 83.6191C87.8288 83.6191 88.418 84.2327 88.4375 85.46V89H87.5342V85.5137C87.5342 85.1361 87.4479 84.8545 87.2754 84.6689C87.1029 84.4801 86.8132 84.3857 86.4062 84.3857C86.071 84.3857 85.7926 84.4867 85.5713 84.6885C85.3499 84.887 85.2214 85.1556 85.1855 85.4941V89H84.2773V85.5381C84.2773 84.7699 83.9014 84.3857 83.1494 84.3857C82.557 84.3857 82.1517 84.638 81.9336 85.1426V89H81.0303V83.7168H81.8848Z" fill="url(#paint0_linear)"/>
<path d="M17.3501 63.1666C17.2569 58.0702 17.1533 52.9737 17.0601 47.867C19.5979 43.4542 22.4361 42.7809 26.1756 46.5721C28.5788 48.996 30.9716 49.918 34.1413 49.6072C35.4879 50.2184 36.213 51.596 37.5182 52.2693C38.409 53.6781 40.0561 54.1339 41.2473 55.1698C41.5684 57.8215 44.3963 57.5937 45.7429 59.0853C46.2712 60.1833 47.1517 61.157 47.0066 62.5036C47.1517 64.9689 45.9397 68.4908 50.7668 67.3203C55.4074 64.6271 58.3803 67.8797 61.4775 70.3968C63.4664 72.0127 64.6576 73.9809 62.7205 76.4876C54.5787 77.9378 46.3644 76.8191 38.1915 77.0988C36.6895 77.1506 35.7779 75.9179 34.7525 75.0271C29.4074 70.3761 23.6585 66.357 17.3501 63.1666Z" fill="#87F8DE"/>
<path d="M32.4319 19.7331C36.3163 15.5586 41.1641 12.5338 45.4112 8.80477C47.1203 7.30278 48.2701 7.6757 49.8032 8.9498C53.2112 11.788 56.7227 14.502 60.3586 17.392C61.788 15.5171 60.3482 12.1195 64.3673 12.2853C68.0653 12.4406 70.4996 12.886 69.6398 17.2884C68.5004 23.1721 71.1832 26.984 75.9689 29.988C78.7243 31.7179 81.1896 33.9035 83.6964 36.0063C85.1051 37.1872 87.4151 37.9537 85.3019 40.7505C83.0231 43.7649 81.6454 41.6828 79.9362 40.4294C79.3872 40.0254 78.8071 39.6629 78.2374 39.2796C72.1155 39.0103 69.039 33.8517 64.7091 30.7545C58.7426 26.4765 53.9363 20.6135 46.8614 17.8478C45.8359 17.4438 44.9243 17.2159 43.9092 17.6717C40.8845 19.9091 37.8598 22.157 34.8351 24.3944C32.3594 23.69 32.898 21.4526 32.4319 19.7331Z" fill="#93FFE6"/>
<path d="M39.2689 27.1188C40.9573 25.6272 42.6354 24.1356 44.3239 22.6543C45.598 19.4742 47.3693 20.2718 49.4928 21.8463C56.8163 27.2535 63.425 33.6655 71.1214 38.4615C77.5438 42.4599 77.5438 47.836 76.7254 53.9682C74.9956 55.7085 73.276 55.0041 71.6394 53.8646C68.9565 52.0001 66.284 50.1252 64.1087 47.6391C61.778 44.0758 58.1007 42.8846 54.2267 42.1077C50.7669 41.4137 47.1517 41.3308 43.951 39.5698C42.0139 37.2392 41.4545 34.0694 38.9996 31.9356C37.6012 30.7029 38.7406 28.7244 39.2689 27.1188Z" fill="#77DAC3"/>
<path d="M17.4536 62.8865C19.086 61.9616 20.0893 61.3553 22.0337 62.8865C27.2326 66.9765 33.5336 69.7511 37.5368 75.2797C38.6598 76.8417 40.157 76.7184 41.6647 76.7184C48.3713 76.7184 55.0675 76.6567 61.7636 76.6156C65.9436 73.1011 70.5394 74.0877 75.156 75.4339C75.7071 75.7524 75.6363 76.071 75.9794 76.6156C74.139 77.9618 72.5046 77.6124 70.477 77.6124C54.5788 77.6124 38.6909 77.3453 22.8031 77.6022C17.6666 77.6844 15.951 75.9271 16.5228 71.1281C16.8244 68.6001 17.3496 65.435 17.4536 62.8865Z" fill="#77DAC3"/>
<path d="M33.8616 50.7052C31.2202 54.9419 28.962 51.6996 26.8696 50.1769C23.8552 47.9913 21.2449 44.7905 17.06 47.8773C16.0967 46.365 16.2728 44.9977 17.7022 43.91C21.4313 41.0718 25.1811 38.275 28.9205 35.4574C32.4321 35.675 33.6648 38.1403 34.4417 41.0407C35.3532 44.6972 38.554 41.2582 40.1389 42.8431C41.4958 44.1275 43.2775 45.008 43.9301 46.9347C41.6098 50.9642 38.1397 51.9275 33.8616 50.7052Z" fill="#B9F8E9"/>
<path d="M33.1263 41.4758C31.7279 39.4662 30.3191 37.4567 28.9207 35.4575C32.3701 32.6814 35.8195 29.9053 39.2689 27.1188C40.7605 29.5116 41.9517 32.122 44.5724 33.6137C47.4728 35.271 46.7581 36.8973 44.4067 38.42C42.6457 42.2423 37.4872 43.6407 33.1263 41.4758Z" fill="#93FFE6"/>
<path d="M35.1465 17.6095C37.1043 18.5729 37.4357 20.3546 37.5393 22.2709C33.7377 25.2956 29.9258 28.3099 26.1242 31.3346C23.3792 31.1171 22.0015 29.8948 22.913 26.984C26.8804 23.7004 30.5991 20.106 35.1465 17.6095Z" fill="#94C6E6"/>
<path d="M24.5175 25.8964C25.5845 27.3466 26.6514 28.7968 27.7287 30.247C24.6004 32.8366 21.41 35.3537 18.3542 38.0366C16.6761 39.4971 15.5367 39.3003 14.159 37.6223C12.6674 35.7991 13.2889 34.6493 14.8841 33.4374C18.1367 30.9513 21.3168 28.4031 24.5175 25.8964Z" fill="#93FFE6"/>
<path d="M28.8393 9.43739C28.6425 12.2653 27.4512 14.1195 24.5405 14.3474C21.319 14.596 19.5891 12.6589 19.527 9.81032C19.4648 7.17925 21.2569 5.22148 24.0433 5.18004C26.7469 5.13861 28.4457 6.74417 28.8393 9.43739Z" fill="#3A82C6"/>
<path d="M69.1326 5.11713C67.7135 6.70199 65.476 7.30277 65.2999 9.996C63.1143 8.45257 62.5653 5.98723 59.9238 5.68684C61.6641 3.73943 63.8393 3.149 64.3469 0C65.8282 2.77609 67.2473 4.13307 69.1326 5.11713Z" fill="#30845B"/>
<path d="M17.2274 22.0392C16.1604 20.9205 14.4099 19.895 14.3477 18.7659C14.2856 17.6783 15.8601 15.6998 16.9166 15.5548C18.4808 15.3372 20.0138 17.2639 20.1589 18.5795C20.2832 19.5428 18.3875 20.7548 17.2274 22.0392Z" fill="#1F65B8"/>
<path d="M65.2896 6.84409C63.8394 6.83373 63.1454 6.18114 63.0418 5.06242C62.9279 3.86082 63.7255 3.18751 64.8131 3.115C65.9215 3.03213 66.7191 3.6433 66.7916 4.84489C66.8434 6.02577 66.0872 6.58512 65.2896 6.84409Z" fill="#1A558B"/>
<path d="M76.3111 67.2479C76.5494 70.4176 76.829 73.5873 76.0832 76.7363C71.4115 76.6327 66.7398 76.5188 62.0785 76.4152C59.7478 70.1068 56.0394 68.2009 50.1765 70.2933C47.6076 68.6048 47.1829 65.4662 45.4219 63.2288C45.0801 62.1929 44.7383 61.1674 44.3964 60.1316C44.5 58.7124 45.5359 58.1427 46.7375 57.7077C44.6554 56.7961 41.8275 58.9092 40.367 55.9881C38.5231 55.9156 36.6482 55.9467 35.1462 54.5898C38.7717 49.5348 46.7582 47.722 53.7502 50.3634C55.0347 50.8503 56.2052 51.5443 57.4171 52.1451C61.1669 54.1858 65.0825 55.8949 68.5836 58.4638C71.8569 60.8774 74.633 63.5292 76.3111 67.2479Z" fill="#B3EBDE"/>
<path d="M40.3564 55.9881C42.832 54.9003 48.7675 54.2478 52.9213 56.1745C54.3715 56.8478 55.7699 57.7179 54.9309 59.6757C54.2161 61.3434 52.8281 61.1777 51.4504 60.6391C49.1404 59.7379 46.8098 59.51 44.3962 60.1315C42.542 59.8414 40.4807 62.4 38.8337 59.8311C37.6528 57.9873 40.3564 55.9881 40.3564 55.9881Z" fill="#1A1531"/>
<path d="M45.4217 62.1513C51.6367 62.1513 51.72 64.1091 50.0832 68.3665C48.6124 69.8063 45.7429 71.1011 43.868 68.3665C41.9517 65.5696 43.35 63.1872 45.4217 62.1513Z" fill="#161430"/>
<path d="M56.8161 53.8645C58.4113 54.1131 59.5404 54.227 59.8408 52.5593C60.1619 50.8087 58.7738 50.2079 57.5515 49.5553C53.1388 47.2039 48.3635 46.831 43.495 46.9035C41.8894 46.5928 40.2838 46.2924 39.2065 44.8836C40.8328 40.8645 44.4998 41.4239 47.6177 41.5067C53.7603 41.6828 59.5715 43.3609 64.8129 46.7067C69.2567 48.1362 72.0949 52.1139 76.2591 53.9681C76.2591 58.443 76.2591 62.9282 76.2487 67.4031C69.7228 63.1561 63.8703 57.3139 56.8161 53.8645Z" fill="#93FFE6"/>
<path d="M64.8647 45.5881C63.7563 46.4168 62.5962 47.3077 61.1667 46.479C54.2472 42.4391 46.8615 42.263 39.2687 43.765C37.1348 44.5418 33.6647 45.8471 33.6647 45.8471C33.6647 45.8471 30.4534 47.6804 29.3657 45.5777C28.3092 43.5267 30.0496 42.5945 31.5309 41.7244C32.1006 41.3929 35.0632 39.8805 35.581 39.8805C35.581 39.8805 39.2687 38.3267 44.3859 37.8087C50.0831 37.8087 55.9978 38.3164 61.2288 41.2065C62.9898 42.1802 65.1029 42.926 64.8647 45.5881Z" fill="#14142E"/>
<path d="M60.9451 53.7756C60.0802 54.5386 59.1749 55.3587 58.0595 54.5958C52.66 50.8765 46.8968 50.7144 40.9719 52.0972C39.3067 52.8123 36.5989 54.014 36.5989 54.014C36.5989 54.014 34.093 55.7019 33.2443 53.766C32.4198 51.8777 33.7779 51.0196 34.9338 50.2185C35.3784 49.9133 37.6901 48.5208 38.0942 48.5208C38.0942 48.5208 40.9719 47.0903 44.9649 46.6135C49.4106 46.6135 54.026 47.0809 58.108 49.7416C59.4821 50.6381 61.131 51.3247 60.9451 53.7756Z" fill="#14142E"/>
<path d="M26.9877 9.81292C26.967 11.4599 26.0347 12.4025 24.512 12.5786C22.9167 12.7547 21.7877 11.7707 21.6219 10.2894C21.4148 8.49737 22.5231 7.33722 24.3255 7.25435C25.9622 7.18184 26.7494 8.29021 26.9877 9.81292Z" fill="#1A1431"/>
<path d="M81.2815 26.8694C78.8887 26.2997 77.2935 24.9738 77.5628 22.2391C77.8114 19.7945 79.2927 18.5204 81.7166 18.6551C84.472 18.8001 85.7253 20.6128 85.5182 23.161C85.3317 25.4813 83.7676 26.7762 81.2815 26.8694Z" fill="#2A73B7"/>
<path d="M83.1062 23.8226C81.687 23.8122 80.7755 23.1803 80.6512 21.8026C80.5476 20.6425 81.2313 19.9174 82.3707 19.7309C83.707 19.5134 84.7843 20.0003 85.0018 21.3883C85.209 22.7349 84.4321 23.5843 83.1062 23.8226Z" fill="#16132F"/>
<path d="M82.6711 21.7324C82.7437 20.9659 83.0855 20.3961 83.9142 20.4065C84.6911 20.4169 85.1779 20.9244 85.1883 21.7013C85.1986 22.4886 84.7221 23.0168 83.9349 23.0375C83.1476 23.0479 82.7437 22.5093 82.6711 21.7324Z" fill="#68DFA6"/>
<defs>
<linearGradient id="paint0_linear" x1="-4.59595" y1="76.2307" x2="93.3267" y2="87.6639" gradientUnits="userSpaceOnUse">
<stop stop-color="#98FDCC"/>
<stop offset="1" stop-color="#B3D5F3"/>
</linearGradient>
</defs>
</svg>
